<?xml version="1.0" encoding="utf-8"?>
<svg viewBox="0 0 500 500" xmlns="http://www.w3.org/2000/svg">
  <svg xmlns="http://www.w3.org/2000/svg" version="1.1" id="Layer_1" x="235.384" y="185" viewBox="149.53294372558594 123.01815795898438 450.93408203125 503.9636535644531" height="116.49053955078126" width="104.23278704309438" preserveAspectRatio="xMinYMin" enable-background="new 0 0 750 750" style="overflow: visible;" transform="matrix(0.23114861404224954, 0, 0, 0.23114861404224954, 200.81966998972, 156.56452328575023)">
    <linearGradient id="SVGID_1_" gradientUnits="userSpaceOnUse" x1="176.4573" y1="552.4377" x2="557.4382" y2="211.9548" style="" gradientTransform="matrix(4.029441, 0, 0, 4.029441, -1298.276123, -1108.133635)">
      <stop offset="0" style="stop-color: #0072FF;"/>
      <stop offset="1" style="stop-color: #00FFFF;"/>
    </linearGradient>
    <path class="st0" d="M 444.055 -463.021 C 485.156 -486.794 537.539 -472.691 561.312 -431.591 C 585.086 -390.491 570.983 -338.108 529.882 -314.334 C 488.783 -290.561 436.4 -304.664 412.626 -345.764 C 388.852 -386.864 402.955 -439.247 444.055 -463.021 Z M -61.64 -474.705 C -109.187 -474.705 -147.467 -436.426 -147.467 -388.878 C -147.467 -341.331 -109.187 -303.052 -61.64 -303.052 C -14.092 -303.052 24.187 -341.331 24.187 -388.878 C 24.187 -436.426 -14.092 -474.705 -61.64 -474.705 Z M 423.908 -35.899 C 444.055 -0.843 488.783 10.842 523.838 -9.305 C 558.894 -29.452 570.58 -74.179 550.433 -109.235 C 530.286 -144.292 485.559 -155.978 450.502 -135.829 C 415.85 -115.279 403.761 -70.956 423.908 -35.899 Z M 261.924 114.399 C 277.64 87.402 268.371 52.345 240.971 36.63 C 213.974 20.915 178.917 30.183 163.203 57.583 C 147.488 84.581 156.756 119.637 184.157 135.352 C 211.557 151.067 246.21 141.799 261.924 114.399 Z M 269.178 -514.194 C 287.31 -545.624 276.43 -585.515 245.404 -603.648 C 214.377 -621.781 174.083 -610.901 155.95 -579.875 C 137.818 -548.848 148.697 -508.552 179.724 -490.421 C 210.751 -472.288 251.448 -483.167 269.178 -514.194 Z M -61.64 -145.501 C -101.934 -145.501 -134.573 -112.862 -134.573 -72.568 C -134.573 -32.273 -101.934 0.365 -61.64 0.365 C -21.345 0.365 11.293 -32.273 11.293 -72.568 C 11.293 -112.862 -21.345 -145.501 -61.64 -145.501 Z M 212.766 -104.401 C 282.474 -104.401 338.887 -160.812 338.887 -230.521 C 338.887 -300.231 282.474 -356.643 212.766 -356.643 C 143.056 -356.643 86.644 -300.231 86.644 -230.521 C 86.644 -160.812 143.056 -104.401 212.766 -104.401 Z M -335.642 -144.694 C -288.094 -144.694 -249.815 -182.975 -249.815 -230.521 C -249.815 -278.069 -288.094 -316.348 -335.642 -316.348 C -383.19 -316.348 -421.469 -278.069 -421.469 -230.521 C -421.469 -182.975 -382.786 -144.694 -335.642 -144.694 Z M -684.189 201.838 C -707.962 242.938 -693.859 295.32 -652.759 319.095 C -611.659 342.868 -559.276 328.765 -535.502 287.665 C -511.728 246.564 -525.832 194.182 -566.932 170.408 C -608.032 146.634 -660.415 160.738 -684.189 201.838 Z M -12.48 215.94 C -28.196 188.943 -62.849 179.273 -90.249 194.987 C -117.246 210.702 -126.917 245.355 -111.202 272.756 C -95.487 299.752 -60.833 309.424 -33.433 293.709 C -6.033 277.994 3.234 243.341 -12.48 215.94 Z M -553.232 -104.803 C -571.364 -136.232 -611.256 -146.709 -642.686 -128.578 C -674.115 -110.445 -684.592 -70.553 -666.459 -39.123 C -648.327 -7.694 -608.435 2.782 -577.005 -15.349 C -545.978 -33.482 -535.099 -73.373 -553.232 -104.803 Z M -399.306 366.238 C -419.454 401.295 -407.366 445.618 -372.713 466.169 C -337.656 486.316 -293.333 474.228 -272.783 439.574 C -252.635 404.519 -264.723 360.194 -299.377 339.645 C -334.433 319.498 -379.16 331.586 -399.306 366.238 Z M -226.444 149.051 C -191.387 88.61 -212.341 11.245 -272.783 -23.408 C -333.224 -58.465 -410.59 -37.511 -445.242 22.931 C -480.299 83.372 -459.346 160.738 -398.903 195.39 C -338.462 230.044 -261.499 209.494 -226.444 149.051 Z M -535.502 603.975 C -511.728 562.875 -525.832 510.492 -566.932 486.719 C -608.032 462.946 -660.415 477.048 -684.189 518.148 C -707.962 559.249 -693.859 611.632 -652.759 635.405 C -611.659 659.178 -559.276 645.077 -535.502 603.975 Z M -409.783 1079.451 C -386.01 1120.55 -333.627 1134.653 -292.526 1110.88 C -251.427 1087.106 -237.323 1034.723 -261.097 993.623 C -284.871 952.523 -337.254 938.42 -378.353 962.193 C -419.454 985.564 -433.557 1038.35 -409.783 1079.451 Z M -61.64 504.448 C -93.07 504.448 -118.455 529.835 -118.455 561.264 C -118.455 592.694 -93.07 618.079 -61.64 618.079 C -30.21 618.079 -4.825 592.694 -4.825 561.264 C -4.825 529.835 -30.21 504.448 -61.64 504.448 Z M -610.046 812.701 C -646.312 812.701 -675.323 842.115 -675.323 877.978 C -675.323 914.243 -645.909 943.254 -610.046 943.254 C -573.782 943.254 -544.77 913.84 -544.77 877.978 C -544.367 841.713 -573.782 812.701 -610.046 812.701 Z M -124.902 914.243 C -104.755 949.298 -60.027 960.984 -24.972 940.837 C 10.085 920.691 21.77 875.963 1.623 840.907 C -18.524 805.851 -63.251 794.165 -98.307 814.313 C -132.961 834.863 -145.05 879.59 -124.902 914.243 Z M -226.444 656.761 C -261.499 596.32 -338.462 575.77 -398.903 610.423 C -459.346 645.077 -479.896 722.442 -445.242 782.884 C -410.187 843.325 -333.224 863.874 -272.783 829.222 C -212.341 794.165 -191.79 717.203 -226.444 656.761 Z M 12.905 1151.577 C -10.869 1110.476 -63.251 1096.374 -104.352 1120.147 C -145.452 1143.921 -159.556 1196.303 -135.782 1237.404 C -112.007 1278.504 -59.626 1292.608 -18.524 1268.834 C 22.576 1245.06 36.276 1192.677 12.905 1151.577 Z M 487.17 1280.52 C 534.718 1280.52 572.997 1242.239 572.997 1194.692 C 572.997 1147.144 534.718 1108.865 487.17 1108.865 C 439.623 1108.865 401.343 1147.144 401.343 1194.692 C 401.343 1242.239 439.623 1280.52 487.17 1280.52 Z M 163.606 691.415 C 147.891 718.412 157.159 753.468 184.559 769.183 C 211.557 784.898 246.613 775.63 262.327 748.23 C 278.043 721.232 268.774 686.176 241.374 670.462 C 213.974 654.747 179.321 664.015 163.606 691.415 Z M 156.354 1320.008 C 138.221 1351.437 149.1 1391.328 180.127 1409.461 C 211.557 1427.594 251.448 1416.714 269.581 1385.687 C 287.713 1354.66 276.833 1314.367 245.806 1296.234 C 214.78 1278.101 174.083 1288.981 156.354 1320.008 Z M 487.17 950.911 C 527.464 950.911 560.103 918.271 560.103 877.978 C 560.103 837.684 527.464 805.045 487.17 805.045 C 446.876 805.045 414.237 837.684 414.237 877.978 C 414.237 918.271 446.876 950.911 487.17 950.911 Z M 212.766 910.214 C 143.056 910.214 86.644 966.626 86.644 1036.335 C 86.644 1106.044 143.056 1162.456 212.766 1162.456 C 282.474 1162.456 338.887 1106.044 338.887 1036.335 C 338.887 966.626 282.474 910.214 212.766 910.214 Z M 761.173 950.508 C 713.625 950.508 675.346 988.787 675.346 1036.335 C 675.346 1083.882 713.625 1122.162 761.173 1122.162 C 808.72 1122.162 846.999 1083.882 846.999 1036.335 C 846.999 988.787 808.317 950.508 761.173 950.508 Z M 1109.719 603.975 C 1133.493 562.875 1119.389 510.492 1078.29 486.719 C 1037.189 462.946 984.806 477.048 961.033 518.148 C 937.259 559.249 951.362 611.632 992.463 635.405 C 1033.562 659.178 1085.945 645.077 1109.719 603.975 Z M 438.01 589.872 C 453.726 616.87 488.379 626.541 515.78 610.825 C 542.777 595.111 552.447 560.458 536.733 533.058 C 521.017 506.06 486.365 496.39 458.964 512.104 C 431.564 527.819 422.297 562.472 438.01 589.872 Z M 978.762 910.617 C 996.895 942.047 1036.786 952.523 1068.216 934.39 C 1099.646 916.257 1110.122 876.366 1091.989 844.936 C 1073.857 813.507 1033.966 803.03 1002.536 821.163 C 971.51 839.295 960.629 879.187 978.762 910.617 Z M 824.838 439.574 C 844.985 404.519 832.896 360.194 798.243 339.645 C 763.187 319.498 718.863 331.586 698.313 366.238 C 678.166 401.295 690.254 445.618 724.907 466.169 C 759.963 486.316 804.69 474.228 824.838 439.574 Z M 651.974 656.761 C 616.919 717.203 637.871 794.568 698.313 829.222 C 758.754 864.278 836.12 843.325 870.773 782.884 C 905.829 722.442 884.876 645.077 824.434 610.423 C 764.396 575.367 687.031 596.32 651.974 656.761 Z M 961.033 201.838 C 937.259 242.938 951.362 295.32 992.463 319.095 C 1033.562 342.868 1085.945 328.765 1109.719 287.665 C 1133.493 246.564 1119.389 194.182 1078.29 170.408 C 1037.189 146.634 984.806 160.738 961.033 201.838 Z M 835.314 -273.637 C 811.54 -314.738 759.157 -328.84 718.057 -305.066 C 676.957 -281.293 662.854 -228.91 686.627 -187.809 C 710.401 -146.709 762.784 -132.606 803.885 -156.38 C 844.985 -179.751 859.087 -232.536 835.314 -273.637 Z M 487.17 301.365 C 518.6 301.365 543.986 275.979 543.986 244.549 C 543.986 213.12 518.6 187.735 487.17 187.735 C 455.741 187.735 430.356 213.12 430.356 244.549 C 430.356 275.979 455.741 301.365 487.17 301.365 Z M 1035.577 -6.888 C 1071.843 -6.888 1100.854 -36.302 1100.854 -72.165 C 1100.854 -108.429 1071.44 -137.442 1035.577 -137.442 C 999.715 -137.442 970.3 -108.026 970.3 -72.165 C 969.897 -35.899 999.312 -6.888 1035.577 -6.888 Z M 651.974 149.051 C 687.031 209.494 763.993 230.044 824.434 195.39 C 884.876 160.335 905.426 83.372 870.773 22.931 C 835.717 -37.511 758.754 -58.062 698.313 -23.408 C 637.871 11.648 617.321 88.61 651.974 149.051 Z" style="fill: url('#SVGID_1_'); transform-origin: -695.741px -612.44px;"/>
  </svg>
  <svg xmlns="http://www.w3.org/2000/svg" x="222.385" y="316" viewBox="3.690000057220459 13.449999809265137 130.22999572753906 32.45000076293945" height="32.45000076293945" width="130.22999572753906" style="overflow: visible;" transform="matrix(1, 0, 0, 1, 218.69499444961548, 302.5500001907349)"/>
</svg>